<svg version="1.2" xmlns="http://www.w3.org/2000/svg" viewBox="871.8557106508873 341.4524 2256.288578698225 1980.0951999999997" width="2258" height="1981">
	<style>
		.s0 { fill: #000000 } 
		.s1 { fill: #f9d302 } 
	</style>
	<g id="Layer 1">
		<g id="&lt;Group&gt;">
			<path id="&lt;Compound Path&gt;" class="s0" d="m3115.17 2175.88l-1031.06-1785.85c-17.31-29.97-49.52-48.58-84.14-48.58-34.56 0-66.83 18.61-84.08 48.58l-1031.06 1785.79c-17.31 29.97-17.31 67.18 0 97.15 17.31 29.97 49.52 48.58 84.14 48.58h2062.06c34.62 0 66.83-18.61 84.14-48.58 17.31-29.97 17.31-67.18 0-97.09zm-2039.1-13.31l923.9-1600.32 923.96 1600.32z"/>
			<path id="&lt;Path&gt;" class="s1" d="m2923.93 2162.57h-1847.86l923.9-1600.32z"/>
			<path id="&lt;Path&gt;" class="s0" d="m2124.22 915h-250.78l-104.98 666.82 258.56-89.43-17.5 252.73-104.98-79.71 89.43 437.42 209.96-423.81-122.48 60.27 136.09-458.81-243.01 60.27z"/>
		</g>
	</g>
</svg>